<?xml version="1.0" encoding="utf-8"?>
<!-- Generator: Adobe Illustrator 16.0.0, SVG Export Plug-In . SVG Version: 6.00 Build 0)  -->
<!DOCTYPE svg PUBLIC "-//W3C//DTD SVG 1.1//EN" "http://www.w3.org/Graphics/SVG/1.1/DTD/svg11.dtd">
<svg version="1.1" id="Layer_1" xmlns="http://www.w3.org/2000/svg" xmlns:xlink="http://www.w3.org/1999/xlink" x="0px" y="0px"
	 width="400px" height="100px" viewBox="0 0 400 100" enable-background="new 0 0 400 100" xml:space="preserve">
<path fill="#414042" stroke="#F7941E" stroke-width="3" stroke-miterlimit="10" d="M163.014,80.517
	c0,7.581-6.145,13.726-13.726,13.726H24.612c-7.581,0-13.726-6.145-13.726-13.726V20.483c0-7.581,6.145-13.726,13.726-13.726
	h124.676c7.581,0,13.726,6.145,13.726,13.726V80.517z"/>
<g>
	<path fill="#BE7029" d="M34.145,15.763c-4.904,0-8.879,3.975-8.879,8.879v49.885c0,4.903,3.976,8.879,8.879,8.879l52.728,2.061
		l0.74-71.936L34.145,15.763z"/>
	<path fill="#F7931E" d="M139.773,15.763l-52.9-2.232l-0.74,71.936l53.64-2.061c4.904,0,8.879-3.976,8.879-8.879V24.642
		C148.652,19.737,144.677,15.763,139.773,15.763z"/>
</g>
<g>
	<path fill="#D1D3D4" d="M56.669,45.934c-3.367-0.984-5.905-1.813-6.786-3.471c-0.259-0.622-0.311-1.296-0.051-2.072
		c0.673-1.606,2.849-2.487,6.837-2.487c3.885,0,8.289,0.829,9.946,1.088l-0.725-8.443c-2.279-0.414-5.646-0.828-9.221-0.881v-5.025
		h-5.802v5.285c-1.813,0.207-3.729,0.674-5.387,1.502c-3.264,1.813-4.921,4.506-5.491,8.806c-0.259,2.28-0.259,5.596,2.228,8.186
		c2.539,2.538,6.631,3.677,9.842,4.661c3.108,0.882,5.491,1.556,6.268,3.161c0.311,0.673,0.311,1.347,0.052,2.071
		c-0.622,1.658-2.59,2.486-6.372,2.486c-4.352,0-9.584-1.139-11.708-1.553L41.181,68c2.124,0.415,5.75,0.934,9.687,1.141v4.973
		h5.802v-5.077c2.021-0.258,4.196-0.621,6.216-1.709c3.212-1.605,5.025-4.507,5.439-8.806c0.155-2.228,0.311-5.646-2.176-8.134
		C63.974,48.108,60.14,47.021,56.669,45.934z"/>
	<polygon fill="#FFFFFF" points="86.607,45.985 86.477,45.579 86.477,68.778 87.126,68.778 102.615,29.978 91.788,29.978 	"/>
	<polygon fill="#D1D3D4" points="81.428,29.978 70.549,29.978 81.065,56.708 76.247,68.778 86.477,68.778 86.477,45.579 	"/>
	<path fill="#FFFFFF" d="M131.206,50.388c-2.176-2.279-6.009-3.367-9.48-4.454c-3.367-0.984-5.905-1.813-6.786-3.471
		c-0.259-0.622-0.311-1.296-0.052-2.072c0.674-1.606,2.849-2.487,6.838-2.487c3.885,0,8.289,0.829,9.946,1.088l-0.725-8.443
		c-2.279-0.414-5.646-0.828-9.221-0.881v-5.025h-5.802v5.285c-1.813,0.207-3.73,0.674-5.387,1.502
		c-3.264,1.813-4.921,4.506-5.491,8.806c-0.259,2.28-0.259,5.596,2.228,8.186c2.538,2.538,6.631,3.677,9.842,4.661
		c3.108,0.882,5.491,1.556,6.268,3.161c0.311,0.673,0.311,1.347,0.052,2.071c-0.622,1.658-2.59,2.486-6.372,2.486
		c-4.351,0-9.583-1.139-11.707-1.553l0.88,8.753c2.124,0.415,5.75,0.934,9.687,1.141v4.973h5.802v-5.077
		c2.021-0.258,4.196-0.621,6.216-1.709c3.212-1.605,5.025-4.507,5.439-8.806C133.537,56.294,133.692,52.875,131.206,50.388z"/>
</g>
<g>
	<path fill="#414042" stroke="#F7941E" stroke-miterlimit="10" d="M193.763,73.626h-2.664c-7.993,0-16.805,0.7-16.805-13.091
		c0-0.21-0.068-3.991-0.068-7.631v-7.141h-5.465v-9.591h5.465v-9.311l11.204-1.96v11.271h8.539l-1.161,9.591h-7.378v10.641V45.764
		v13.231c0,2.45,0,4.34,2.459,5.11c1.981,0.91,5.534,1.12,5.875,1.12V73.626z"/>
	<path fill="#414042" stroke="#F7941E" stroke-miterlimit="10" d="M221.291,35.542l1.093,9.871c-1.366-0.07-3.894,0.14-4.782,0.35
		l-0.751,0.14c-1.64,0.35-3.894,1.12-6.899,2.24v1.89v23.453h-11.136V35.893h9.223c0.068,0.28,0.205,0.56,0.342,0.84
		c0.205,0.49,0.41,1.12,0.614,1.89c0.889-0.35,1.298-0.49,2.597-0.98c1.571-0.56,3.278-1.05,5.396-1.54
		C218.422,35.752,219.856,35.612,221.291,35.542z"/>
	<path fill="#414042" stroke="#F7941E" stroke-miterlimit="10" d="M256.538,50.524v22.962h-9.29c-0.068-0.21-0.137-0.49-0.205-0.7
		c-0.205-0.49-0.273-1.05-0.342-1.61c-3.279,1.751-6.558,2.73-10.042,2.73h-0.956c-3.348,0-6.012-1.33-7.993-3.99
		c-1.298-2.03-1.98-4.341-1.98-6.931v-0.28c0-4.551,1.571-7.491,4.645-8.961c1.299-0.91,4.509-1.33,9.633-1.33h5.26v-1.26
		c0-2.591-0.342-4.061-1.093-4.481c-0.819-0.63-2.255-0.91-4.235-0.91h-10.521l1.024-9.521h11.272c7.173,0,11.613,1.82,13.32,5.461
		C256.061,43.873,256.538,46.813,256.538,50.524z M241.51,60.045c-2.187,0-3.484,0.21-3.963,0.7c-0.341,0.35-0.546,0.98-0.546,1.96
		c0,2.03,1.024,3.08,3.074,3.08c1.435,0,3.211-0.63,5.191-1.54v-4.2H241.51z"/>
	<path fill="#414042" stroke="#F7941E" stroke-miterlimit="10" d="M262.275,40.793c1.502-3.431,5.533-5.181,12.022-5.181
		c2.392,0.07,5.602,0.63,7.993,1.4c0,1.61,0.068-2.38,0.068-6.791c0-2.59,0-5.601,0.068-9.171l11.135-2.03v53.485
		c-5.465,0.91-10.315,1.471-14.961,1.471c-6.626,0-11.271-1.33-14.004-3.921c-1.298-1.399-2.05-2.52-2.322-3.43
		c-0.889-1.471-1.367-5.251-1.367-11.271v-3.71C260.908,45.974,261.387,42.403,262.275,40.793z M272.454,61.305
		c0.614,2.171,2.527,3.221,5.807,3.221h0.751l3.279-0.14V46.954c-1.64-1.05-3.348-1.61-5.192-1.61h-0.819l-0.82,0.07
		c-2.186,0.42-3.278,1.82-3.278,4.2v9.381C272.181,59.835,272.249,60.535,272.454,61.305z"/>
	<path fill="#414042" stroke="#F7941E" stroke-miterlimit="10" d="M330.109,51.504v6.44v0.21h-20.426v1.12
		c0,2.521,0.751,4.061,2.254,4.621c1.024,0.28,2.186,0.49,4.03,0.49h0.889c3.894,0,7.992-0.42,12.296-1.33h0.068v9.381
		c0,0.14-1.913,0.49-5.738,1.12c-2.391,0.279-5.191,0.42-8.266,0.42c-7.993,0-13.185-2.801-15.508-8.331
		c-0.888-2.24-1.298-4.551-1.298-6.86v-8.961c0-6.581,2.664-10.921,8.062-13.091c2.527-0.84,4.986-1.19,7.65-1.19
		c7.515,0,12.434,2.52,14.688,7.561C329.699,45.133,330.109,47.934,330.109,51.504z M317.197,45.133
		c-0.819-0.56-1.844-0.84-3.006-0.84c-3.21,0-4.508,1.47-4.508,4.34v1.75h9.153v-0.63C318.837,47.164,318.291,45.624,317.197,45.133
		z"/>
	<path fill="#414042" stroke="#F7941E" stroke-miterlimit="10" d="M357.363,35.542l1.093,9.871c-1.366-0.07-3.894,0.14-4.782,0.35
		l-0.751,0.14c-1.64,0.35-3.894,1.12-6.899,2.24v1.89v23.453h-11.136V35.893h9.223c0.068,0.28,0.205,0.56,0.342,0.84
		c0.205,0.49,0.41,1.12,0.614,1.89c0.889-0.35,1.298-0.49,2.597-0.98c1.571-0.56,3.278-1.05,5.396-1.54
		C354.494,35.752,355.929,35.612,357.363,35.542z"/>
	<path fill="#414042" stroke="#F7941E" stroke-miterlimit="10" d="M376.557,73.977c-5.396,0-11.135-0.7-13.936-1.261l-1.024-10.011
		c2.527,0.561,17.01,3.501,18.444,0c1.366-3.71-10.726-2.94-16.122-8.19c-2.732-2.45-2.801-5.671-2.596-8.121
		c1.093-9.731,10.11-10.501,15.37-10.711c4.919-0.21,9.77,0.42,12.57,0.91l1.024,9.871c-3.484-0.77-15.712-2.73-17.01,0.42
		c-1.571,3.78,11.271,3.5,16.122,8.19c2.596,2.661,2.664,5.671,2.459,8.261C390.767,72.927,381.886,73.767,376.557,73.977z"/>
</g>
</svg>
